<svg width="119" height="39" viewBox="0 0 119 39" fill="none" xmlns="http://www.w3.org/2000/svg">
    <path
        d="M114.391 38.468C113.303 38.468 112.375 38.1 111.607 37.364C110.839 36.596 110.455 35.636 110.455 34.484C110.455 33.268 110.839 32.308 111.607 31.604C112.375 30.868 113.303 30.5 114.391 30.5C115.479 30.5 116.407 30.868 117.175 31.604C117.943 32.308 118.327 33.268 118.327 34.484C118.327 35.636 117.943 36.596 117.175 37.364C116.407 38.1 115.479 38.468 114.391 38.468Z"
        fill="#F7861D" />
    <path
        d="M95.0867 38.756C92.4627 38.756 90.1267 38.196 88.0787 37.076C86.0307 35.924 84.4147 34.356 83.2307 32.372C82.0467 30.388 81.4547 28.132 81.4547 25.604C81.4547 23.044 82.0467 20.788 83.2307 18.836C84.4147 16.852 86.0307 15.3 88.0787 14.18C90.1267 13.06 92.4627 12.5 95.0867 12.5C97.7427 12.5 100.095 13.06 102.143 14.18C104.223 15.3 105.839 16.836 106.991 18.788C108.175 20.74 108.767 23.012 108.767 25.604C108.767 28.132 108.175 30.388 106.991 32.372C105.839 34.356 104.223 35.924 102.143 37.076C100.095 38.196 97.7427 38.756 95.0867 38.756ZM95.0867 33.62C96.5587 33.62 97.8707 33.3 99.0227 32.66C100.175 32.02 101.071 31.092 101.711 29.876C102.383 28.66 102.719 27.236 102.719 25.604C102.719 23.94 102.383 22.516 101.711 21.332C101.071 20.116 100.175 19.188 99.0227 18.548C97.8707 17.908 96.5747 17.588 95.1347 17.588C93.6627 17.588 92.3507 17.908 91.1987 18.548C90.0787 19.188 89.1827 20.116 88.5107 21.332C87.8387 22.516 87.5027 23.94 87.5027 25.604C87.5027 27.236 87.8387 28.66 88.5107 29.876C89.1827 31.092 90.0787 32.02 91.1987 32.66C92.3507 33.3 93.6467 33.62 95.0867 33.62Z"
        fill="#E3E3E5" />
    <path
        d="M71.2706 38.556V12.924H77.2707V38.556H71.2706ZM74.2946 8.7C73.1746 8.7 72.2467 8.348 71.5107 7.644C70.8067 6.94 70.4547 6.092 70.4547 5.1C70.4547 4.076 70.8067 3.228 71.5107 2.556C72.2467 1.852 73.1746 1.5 74.2946 1.5C75.4146 1.5 76.3266 1.836 77.0306 2.508C77.7666 3.148 78.1347 3.964 78.1347 4.956C78.1347 6.012 77.7827 6.908 77.0787 7.644C76.3747 8.348 75.4466 8.7 74.2946 8.7Z"
        fill="#E3E3E5" />
    <path d="M60.4547 38.116V2.5H66.4547V38.116H60.4547Z" fill="#E3E3E5" />
    <path
        d="M43.0867 38.756C40.4627 38.756 38.1267 38.196 36.0787 37.076C34.0307 35.924 32.4146 34.356 31.2306 32.372C30.0466 30.388 29.4547 28.132 29.4547 25.604C29.4547 23.044 30.0466 20.788 31.2306 18.836C32.4146 16.852 34.0307 15.3 36.0787 14.18C38.1267 13.06 40.4627 12.5 43.0867 12.5C45.7427 12.5 48.0947 13.06 50.1427 14.18C52.2227 15.3 53.8386 16.836 54.9907 18.788C56.1747 20.74 56.7667 23.012 56.7667 25.604C56.7667 28.132 56.1747 30.388 54.9907 32.372C53.8386 34.356 52.2227 35.924 50.1427 37.076C48.0947 38.196 45.7427 38.756 43.0867 38.756ZM43.0867 33.62C44.5587 33.62 45.8706 33.3 47.0226 32.66C48.1746 32.02 49.0707 31.092 49.7107 29.876C50.3827 28.66 50.7187 27.236 50.7187 25.604C50.7187 23.94 50.3827 22.516 49.7107 21.332C49.0707 20.116 48.1746 19.188 47.0226 18.548C45.8706 17.908 44.5746 17.588 43.1346 17.588C41.6626 17.588 40.3507 17.908 39.1987 18.548C38.0787 19.188 37.1827 20.116 36.5107 21.332C35.8387 22.516 35.5027 23.94 35.5027 25.604C35.5027 27.236 35.8387 28.66 36.5107 29.876C37.1827 31.092 38.0787 32.02 39.1987 32.66C40.3507 33.3 41.6467 33.62 43.0867 33.62Z"
        fill="#F7861D" />
    <path
        d="M4.896 32.788L5.04 25.252L18.432 12.868H25.632L14.256 24.292L11.088 26.932L4.896 32.788ZM0 38.5V2.88399H6V38.5H0ZM19.344 38.5L9.984 26.932L13.776 22.132L26.64 38.5H19.344Z"
        fill="#950101" />
    <path
        d="M80.9547 6.5C80.9547 8.98528 76.94 9 74.4547 9C69.9547 9 69.9547 6.98528 69.9547 4.5C69.9547 2.01472 70.9547 0 74.4547 0C76.9547 0 80.9547 4.01472 80.9547 6.5Z"
        fill="#950101" />
</svg>