<?xml version="1.0" encoding="utf-8"?>
<!-- Generator: Adobe Illustrator 26.0.1, SVG Export Plug-In . SVG Version: 6.00 Build 0)  -->
<svg version="1.1" id="Layer_1" xmlns="http://www.w3.org/2000/svg" xmlns:xlink="http://www.w3.org/1999/xlink" x="0px" y="0px"
	 viewBox="0 0 119 39" style="enable-background:new 0 0 119 39;" xml:space="preserve">
<style type="text/css">
	.st0{fill:#F7861D;}
	.st1{fill:#950101;}
</style>
<path class="st0" d="M167.8,35.5c-3,0-5.5-1-7.6-3c-2.1-2.1-3.1-4.7-3.1-7.8c0-3.3,1-5.9,3.1-7.8c2.1-2,4.6-3,7.6-3s5.5,1,7.6,3
	c2.1,1.9,3.1,4.5,3.1,7.8c0,3.1-1,5.7-3.1,7.8C173.3,34.5,170.8,35.5,167.8,35.5z"/>
<path class="st0" d="M102.2,39.9c-11.3,0-21.4-2.4-30.3-7.3c-8.9-5-15.8-11.8-21-20.3C45.8,3.7,43.3-6,43.3-17
	c0-11.1,2.6-20.8,7.7-29.3c5.1-8.6,12.1-15.3,21-20.1s18.9-7.3,30.3-7.3c11.5,0,21.6,2.4,30.5,7.3c9,4.8,16,11.5,21,19.9
	c5.1,8.4,7.7,18.3,7.7,29.5c0,10.9-2.6,20.7-7.7,29.3c-5,8.6-12,15.4-21,20.3C123.8,37.5,113.7,39.9,102.2,39.9z M102.2,17.7
	c6.4,0,12-1.4,17-4.1c5-2.8,8.9-6.8,11.6-12c2.9-5.3,4.4-11.4,4.4-18.5c0-7.2-1.5-13.3-4.4-18.5c-2.8-5.3-6.6-9.3-11.6-12
	c-5-2.8-10.6-4.1-16.8-4.1c-6.4,0-12,1.4-17,4.1c-4.8,2.8-8.7,6.8-11.6,12c-2.9,5.1-4.4,11.3-4.4,18.5c0,7.1,1.5,13.2,4.4,18.5
	c2.9,5.3,6.8,9.3,11.6,12C90.4,16.3,96,17.7,102.2,17.7z"/>
<path class="st1" d="M-38.3,10.8l0.6-32.6l58-53.7h31.2L2.3-26l-13.7,11.4L-38.3,10.8z M-59.5,35.5v-154.3h26V35.5H-59.5z
	 M24.3,35.5l-40.5-50.1L0.2-35.4l55.7,70.9H24.3z"/>
</svg>
